<?xml version="1.0" encoding="UTF-8"?>
<svg width="752pt" height="752pt" version="1.1" viewBox="0 0 752 752" xmlns="http://www.w3.org/2000/svg">
 <g fill="#fff">
  <path d="m468.82 371.27c-2.8398-1.8945-6.1562-1.4219-8.5234 0.47266-23.68 17.523-52.566 27.469-84.297 27.469-31.73 0-60.617-10.418-84.297-27.469-2.3672-1.8945-6.1562-1.8945-8.5234-0.47266-55.883 35.992-83.824 106.55-83.824 187.54 0 55.883 353.29 55.883 353.29 0-0.003906-80.984-27.945-151.55-83.828-187.54z"/>
  <path d="m481.61 256.66c0 58.324-47.281 105.61-105.61 105.61-58.324 0-105.61-47.281-105.61-105.61 0-58.328 47.281-105.61 105.61-105.61 58.328 0 105.61 47.281 105.61 105.61"/>
 </g>
</svg>
