<?xml version="1.0" encoding="UTF-8"?>
<svg xmlns="http://www.w3.org/2000/svg" xmlns:xlink="http://www.w3.org/1999/xlink" width="30px" height="30px" viewBox="0 0 30 29" version="1.1">
<g id="surface1">
<path style=" stroke:none;fill-rule:nonzero;fill:rgb(100%,100%,100%);fill-opacity:1;" d="M 22.871094 13.550781 L 9.5 13.550781 L 12.542969 10.609375 C 12.929688 10.234375 12.929688 9.632812 12.542969 9.261719 C 12.160156 8.886719 11.535156 8.886719 11.152344 9.261719 L 6.425781 13.828125 C 6.378906 13.871094 6.339844 13.921875 6.304688 13.972656 C 6.289062 13.992188 6.28125 14.015625 6.265625 14.039062 C 6.246094 14.070312 6.226562 14.101562 6.214844 14.136719 C 6.203125 14.164062 6.195312 14.195312 6.183594 14.230469 C 6.175781 14.257812 6.164062 14.28125 6.15625 14.3125 C 6.132812 14.433594 6.132812 14.566406 6.15625 14.6875 C 6.164062 14.71875 6.171875 14.742188 6.183594 14.769531 C 6.191406 14.800781 6.199219 14.835938 6.214844 14.867188 C 6.230469 14.898438 6.25 14.929688 6.265625 14.960938 C 6.277344 14.984375 6.289062 15.007812 6.304688 15.027344 C 6.339844 15.082031 6.382812 15.132812 6.425781 15.171875 L 11.152344 19.738281 C 11.34375 19.925781 11.59375 20.015625 11.847656 20.015625 C 12.097656 20.015625 12.351562 19.925781 12.542969 19.738281 C 12.929688 19.367188 12.929688 18.765625 12.542969 18.390625 L 9.5 15.449219 L 22.871094 15.449219 C 23.414062 15.449219 23.855469 15.023438 23.855469 14.5 C 23.855469 13.976562 23.414062 13.546875 22.871094 13.546875 Z M 22.871094 13.550781 "/>
</g>
</svg>
