<?xml version="1.0" encoding="UTF-8"?>
<svg xmlns="http://www.w3.org/2000/svg" xmlns:xlink="http://www.w3.org/1999/xlink" width="30px" height="30px" viewBox="0 0 30 29" version="1.1">
<g id="surface1">
<path style=" stroke:none;fill-rule:evenodd;fill:rgb(100%,100%,100%);fill-opacity:1;" d="M 20.042969 18.589844 L 14.148438 18.589844 L 14.148438 10.976562 C 14.148438 10.628906 13.941406 10.335938 13.660156 10.171875 L 13.660156 10.152344 L 11.789062 9.058594 L 20.042969 9.058594 C 20.59375 9.058594 21.027344 8.636719 21.027344 8.109375 C 21.027344 7.578125 20.59375 7.160156 20.042969 7.160156 L 16.113281 7.15625 L 8.238281 7.15625 C 8.105469 7.15625 7.972656 7.175781 7.859375 7.230469 C 7.5 7.394531 7.253906 7.722656 7.253906 8.125 L 7.253906 18.589844 C 7.253906 18.753906 7.3125 18.902344 7.386719 19.027344 C 7.40625 19.046875 7.40625 19.066406 7.425781 19.085938 C 7.5 19.210938 7.613281 19.320312 7.746094 19.394531 L 7.746094 19.414062 L 12.65625 22.261719 L 12.65625 22.242188 C 12.808594 22.335938 12.976562 22.390625 13.148438 22.390625 C 13.695312 22.390625 14.132812 21.96875 14.132812 21.441406 L 14.132812 20.492188 L 20.027344 20.492188 C 20.574219 20.492188 21.007812 20.070312 21.007812 19.539062 C 21.027344 19.011719 20.59375 18.589844 20.042969 18.589844 Z M 22.707031 13.167969 L 20.742188 11.25 C 20.574219 11.085938 20.328125 10.976562 20.042969 10.976562 C 19.496094 10.976562 19.0625 11.394531 19.0625 11.925781 C 19.0625 12.179688 19.175781 12.417969 19.34375 12.601562 L 19.628906 12.875 L 17.097656 12.875 C 16.550781 12.875 16.113281 13.292969 16.113281 13.824219 C 16.113281 14.355469 16.550781 14.773438 17.097656 14.773438 L 19.648438 14.773438 L 19.34375 15.066406 C 19.175781 15.230469 19.0625 15.46875 19.0625 15.742188 C 19.0625 16.273438 19.496094 16.691406 20.042969 16.691406 C 20.308594 16.691406 20.554688 16.582031 20.742188 16.417969 L 22.707031 14.5 C 22.878906 14.335938 22.992188 14.097656 22.992188 13.824219 C 22.992188 13.550781 22.878906 13.332031 22.707031 13.167969 Z M 22.707031 13.167969 "/>
</g>
</svg>
