<?xml version="1.0" encoding="UTF-8"?>
<svg xmlns="http://www.w3.org/2000/svg" xmlns:xlink="http://www.w3.org/1999/xlink" width="40px" height="40px" viewBox="0 0 40 40" version="1.1">
<g id="surface1">
<path style=" stroke:none;fill-rule:nonzero;fill:rgb(100%,100%,100%);fill-opacity:1;" d="M 28.453125 19.078125 L 20.582031 11.207031 C 20.4375 11.0625 20.238281 10.980469 20.03125 10.980469 C 19.824219 10.980469 19.628906 11.0625 19.480469 11.207031 L 11.609375 19.078125 C 11.472656 19.226562 11.398438 19.417969 11.398438 19.617188 C 11.398438 19.816406 11.472656 20.007812 11.609375 20.152344 C 11.742188 20.300781 11.929688 20.386719 12.128906 20.402344 L 13.089844 20.402344 L 13.089844 28.273438 C 13.089844 28.484375 13.171875 28.683594 13.320312 28.832031 C 13.46875 28.976562 13.667969 29.0625 13.875 29.0625 L 18.285156 29.0625 L 18.285156 23.777344 C 18.285156 23.570312 18.367188 23.371094 18.515625 23.222656 C 18.664062 23.074219 18.863281 22.992188 19.070312 22.992188 L 20.976562 22.992188 C 21.183594 22.992188 21.386719 23.074219 21.53125 23.222656 C 21.679688 23.371094 21.761719 23.570312 21.761719 23.777344 L 21.761719 29.054688 L 26.171875 29.054688 C 26.378906 29.054688 26.582031 28.96875 26.730469 28.824219 C 26.875 28.675781 26.960938 28.476562 26.960938 28.265625 L 26.960938 20.394531 L 27.960938 20.394531 C 28.152344 20.375 28.332031 20.28125 28.460938 20.136719 C 28.59375 19.988281 28.664062 19.800781 28.660156 19.605469 C 28.660156 19.410156 28.585938 19.222656 28.453125 19.078125 Z M 28.453125 19.078125 "/>
</g>
</svg>
