<svg width="190" height="456" viewBox="0 0 190 456" fill="none" xmlns="http://www.w3.org/2000/svg">
<path d="M189.72 303.77C189.72 345.59 155.771 379.543 113.947 379.543C51.209 379.543 0.286987 328.699 0.286987 265.883C0.286987 203.137 51.131 152.223 113.947 152.223V227.996C85.912 227.996 61.435 243.226 48.326 265.883C41.8846 277.024 38.174 289.981 38.174 303.77H113.947C93.033 303.77 76.06 286.797 76.06 265.883C76.06 244.969 93.033 227.996 113.947 227.996C155.767 227.996 189.72 261.949 189.72 303.769V303.77Z" fill="white"/>
<path d="M189.72 76.46C189.72 118.288 155.771 152.233 113.947 152.233V0.682983C155.767 0.682983 189.72 34.628 189.72 76.456V76.46Z" fill="white"/>
<path d="M38.17 455.32C38.17 413.492 72.119 379.547 113.943 379.547V455.32H38.17Z" fill="white"/>
</svg>
