<?xml version="1.0" encoding="UTF-8"?>
<svg xmlns="http://www.w3.org/2000/svg" xmlns:xlink="http://www.w3.org/1999/xlink" width="30px" height="30px" viewBox="0 0 30 29" version="1.1">
<g id="surface1">
<path style=" stroke:none;fill-rule:nonzero;fill:rgb(100%,100%,100%);fill-opacity:1;" d="M 20.761719 7.324219 L 9.238281 7.324219 C 8.105469 7.324219 7.179688 8.21875 7.179688 9.3125 L 7.179688 16.929688 C 7.179688 18.023438 8.105469 18.917969 9.238281 18.917969 L 14.566406 18.917969 L 18.550781 21.53125 C 18.703125 21.640625 18.890625 21.675781 19.0625 21.675781 C 19.214844 21.675781 19.363281 21.640625 19.496094 21.566406 C 19.800781 21.402344 19.988281 21.109375 19.988281 20.78125 L 19.988281 18.917969 L 20.761719 18.917969 C 21.894531 18.917969 22.820312 18.023438 22.820312 16.929688 L 22.820312 9.3125 C 22.820312 8.199219 21.894531 7.324219 20.761719 7.324219 Z M 20.761719 7.324219 "/>
</g>
</svg>
