<?xml version="1.0" encoding="UTF-8"?>
<svg xmlns="http://www.w3.org/2000/svg" xmlns:xlink="http://www.w3.org/1999/xlink" width="30px" height="30px" viewBox="0 0 30 29" version="1.1">
<g id="surface1">
<path style=" stroke:none;fill-rule:nonzero;fill:rgb(100%,100%,100%);fill-opacity:1;" d="M 10.671875 13.441406 C 10.597656 13.421875 10.503906 13.460938 10.445312 13.496094 C 10.050781 13.769531 9.558594 13.933594 9.03125 13.933594 C 8.5 13.933594 8.007812 13.769531 7.613281 13.496094 C 7.554688 13.460938 7.460938 13.421875 7.386719 13.441406 C 5.988281 13.605469 6.027344 16.199219 6.027344 17.53125 C 6.027344 18.464844 7.195312 18.464844 9.03125 18.464844 C 9.632812 18.464844 10.183594 18.464844 10.617188 18.425781 L 10.617188 18.335938 C 10.617188 17.550781 10.617188 16.34375 10.824219 15.304688 C 10.957031 14.699219 11.128906 14.226562 11.371094 13.84375 C 11.203125 13.625 10.957031 13.476562 10.671875 13.441406 Z M 10.671875 13.441406 "/>
<path style=" stroke:none;fill-rule:nonzero;fill:rgb(100%,100%,100%);fill-opacity:1;" d="M 10.824219 11.597656 C 10.824219 12.554688 10.019531 13.332031 9.03125 13.332031 C 8.039062 13.332031 7.234375 12.554688 7.234375 11.597656 C 7.234375 10.636719 8.039062 9.859375 9.03125 9.859375 C 10.019531 9.859375 10.824219 10.636719 10.824219 11.597656 "/>
<path style=" stroke:none;fill-rule:nonzero;fill:rgb(100%,100%,100%);fill-opacity:1;" d="M 22.613281 13.441406 C 22.539062 13.421875 22.445312 13.460938 22.386719 13.496094 C 21.992188 13.769531 21.5 13.933594 20.96875 13.933594 C 20.441406 13.933594 19.949219 13.769531 19.554688 13.496094 C 19.496094 13.460938 19.402344 13.421875 19.328125 13.441406 C 19.023438 13.476562 18.796875 13.625 18.609375 13.84375 C 18.855469 14.226562 19.042969 14.699219 19.15625 15.304688 C 19.363281 16.34375 19.363281 17.53125 19.363281 18.335938 L 19.363281 18.445312 C 19.816406 18.480469 20.347656 18.480469 20.953125 18.480469 C 22.785156 18.480469 23.957031 18.480469 23.957031 17.550781 C 23.972656 16.21875 23.992188 13.605469 22.613281 13.441406 Z M 22.613281 13.441406 "/>
<path style=" stroke:none;fill-rule:nonzero;fill:rgb(100%,100%,100%);fill-opacity:1;" d="M 22.765625 11.597656 C 22.765625 12.554688 21.960938 13.332031 20.96875 13.332031 C 19.980469 13.332031 19.175781 12.554688 19.175781 11.597656 C 19.175781 10.636719 19.980469 9.859375 20.96875 9.859375 C 21.960938 9.859375 22.765625 10.636719 22.765625 11.597656 "/>
<path style=" stroke:none;fill-rule:nonzero;fill:rgb(100%,100%,100%);fill-opacity:1;" d="M 16.90625 13.660156 C 16.8125 13.640625 16.71875 13.679688 16.644531 13.734375 C 16.191406 14.042969 15.625 14.246094 15 14.246094 C 14.394531 14.246094 13.828125 14.0625 13.355469 13.734375 C 13.28125 13.679688 13.1875 13.660156 13.089844 13.660156 C 11.46875 13.84375 11.503906 16.875 11.503906 18.40625 C 11.503906 19.484375 12.863281 19.484375 15 19.484375 C 17.117188 19.484375 18.496094 19.484375 18.496094 18.40625 C 18.496094 16.875 18.515625 13.84375 16.90625 13.660156 Z M 16.90625 13.660156 "/>
<path style=" stroke:none;fill-rule:nonzero;fill:rgb(100%,100%,100%);fill-opacity:1;" d="M 17.078125 11.503906 C 17.078125 12.613281 16.148438 13.515625 15 13.515625 C 13.851562 13.515625 12.921875 12.613281 12.921875 11.503906 C 12.921875 10.394531 13.851562 9.496094 15 9.496094 C 16.148438 9.496094 17.078125 10.394531 17.078125 11.503906 "/>
</g>
</svg>
