<?xml version="1.0" encoding="UTF-8"?>
<svg xmlns="http://www.w3.org/2000/svg" xmlns:xlink="http://www.w3.org/1999/xlink" width="48px" height="48px" viewBox="0 0 48 48" version="1.1">
<g id="surface1">
<path style=" stroke:none;fill-rule:nonzero;fill:rgb(100%,100%,100%);fill-opacity:1;" d="M 24 16.140625 C 23 16.140625 22.1875 16.953125 22.1875 17.953125 L 22.1875 22.1875 L 17.953125 22.1875 C 16.953125 22.1875 16.140625 23 16.140625 24 C 16.140625 25 16.953125 25.8125 17.953125 25.8125 L 22.1875 25.8125 L 22.1875 30.046875 C 22.1875 31.046875 23 31.859375 24 31.859375 C 25 31.859375 25.8125 31.046875 25.8125 30.046875 L 25.8125 25.8125 L 30.046875 25.8125 C 31.046875 25.8125 31.859375 25 31.859375 24 C 31.859375 23 31.046875 22.1875 30.046875 22.1875 L 25.8125 22.1875 L 25.8125 17.953125 C 25.8125 16.953125 25 16.140625 24 16.140625 Z M 24 16.140625 "/>
</g>
</svg>
