<?xml version="1.0" encoding="UTF-8"?>
<svg xmlns="http://www.w3.org/2000/svg" xmlns:xlink="http://www.w3.org/1999/xlink" width="30px" height="30px" viewBox="0 0 30 29" version="1.1">
<defs>
<clipPath id="clip1">
  <path d="M 5.554688 5.367188 L 24.445312 5.367188 L 24.445312 23.632812 L 5.554688 23.632812 Z M 5.554688 5.367188 "/>
</clipPath>
</defs>
<g id="surface1">
<g clip-path="url(#clip1)" clip-rule="nonzero">
<path style=" stroke:none;fill-rule:nonzero;fill:rgb(100%,100%,100%);fill-opacity:1;" d="M 6.121094 5.371094 C 5.941406 5.375 5.777344 5.460938 5.667969 5.601562 C 5.5625 5.738281 5.527344 5.917969 5.574219 6.085938 L 7.539062 13.214844 L 16.226562 14.5 L 7.542969 15.78125 L 5.574219 22.914062 C 5.535156 23.054688 5.554688 23.207031 5.625 23.335938 C 5.699219 23.464844 5.824219 23.5625 5.96875 23.605469 C 6.113281 23.648438 6.273438 23.636719 6.410156 23.570312 L 24.121094 15.007812 C 24.253906 14.945312 24.355469 14.835938 24.40625 14.703125 C 24.460938 14.574219 24.460938 14.425781 24.40625 14.292969 C 24.355469 14.160156 24.253906 14.054688 24.121094 13.988281 L 6.410156 5.429688 C 6.320312 5.386719 6.222656 5.367188 6.121094 5.371094 Z M 6.121094 5.371094 "/>
</g>
</g>
</svg>
